HIERARCHY
ROOT Hips
{
  OFFSET 0.0502701 92.146 0
  CHANNELS 6 Xposition Yposition Zposition Zrotation Xrotation Yrotation
  JOINT Bip01_Pelvis
  {
    OFFSET 0 0 0
    CHANNELS 6 Xposition Yposition Zposition Zrotation Xrotation Yrotation
    JOINT BN_Tai_01
    {
      OFFSET -4.6544 -2.06234 0
      CHANNELS 6 Xposition Yposition Zposition Zrotation Xrotation Yrotation
      JOINT BN_Tai_R_01
      {
        OFFSET 10.2279 -0.119812 3.68897
        CHANNELS 6 Xposition Yposition Zposition Zrotation Xrotation Yrotation
        JOINT BN_Tai_R_02
        {
          OFFSET 15.0421 0 1.52588e-005
          CHANNELS 6 Xposition Yposition Zposition Zrotation Xrotation Yrotation
          End Site
          {
            OFFSET 0 0 0
          }
        }
      }
      JOINT BN_Tai_L_01
      {
        OFFSET 10.2279 -0.119797 -3.68907
        CHANNELS 6 Xposition Yposition Zposition Zrotation Xrotation Yrotation
        JOINT BN_Tai_L_02
        {
          OFFSET 15.0421 0 0
          CHANNELS 6 Xposition Yposition Zposition Zrotation Xrotation Yrotation
          End Site
          {
            OFFSET 0 0 0
          }
        }
      }
    }
    JOINT Bip01_Spine
    {
      OFFSET 2.7319 1.49192 0
      CHANNELS 6 Xposition Yposition Zposition Zrotation Xrotation Yrotation
      JOINT Bip01_R_Thigh
      {
        OFFSET -2.85206 -1.24717 -6.20578
        CHANNELS 6 Xposition Yposition Zposition Zrotation Xrotation Yrotation
        JOINT Bip01_R_Calf
        {
          OFFSET 6.73247 0 0
          CHANNELS 6 Xposition Yposition Zposition Zrotation Xrotation Yrotation
          JOINT Bip01_R_HorseLink
          {
            OFFSET 8.08523 0 0
            CHANNELS 6 Xposition Yposition Zposition Zrotation Xrotation Yrotation
            JOINT Bip01_R_Foot
            {
              OFFSET 8.97518 0 0
              CHANNELS 6 Xposition Yposition Zposition Zrotation Xrotation Yrotation
              JOINT BN_Toe_R_30
              {
                OFFSET 1.58762 -0.234982 -0.295153
                CHANNELS 6 Xposition Yposition Zposition Zrotation Xrotation Yrotation
                JOINT BN_Toe_R_31
                {
                  OFFSET 3.03849 0 0
                  CHANNELS 6 Xposition Yposition Zposition Zrotation Xrotation Yrotation
                  End Site
                  {
                    OFFSET 0 0 0
                  }
                }
              }
              JOINT BN_Toe_R_00
              {
                OFFSET 1.65463 0.933666 1.02414
                CHANNELS 6 Xposition Yposition Zposition Zrotation Xrotation Yrotation
                JOINT BN_Toe_R_01
                {
                  OFFSET 3.51775 0 0
                  CHANNELS 6 Xposition Yposition Zposition Zrotation Xrotation Yrotation
                  End Site
                  {
                    OFFSET 0 0 0
                  }
                }
              }
              JOINT BN_Toe_R_20
              {
                OFFSET 1.47309 1.0106 -1.16708
                CHANNELS 6 Xposition Yposition Zposition Zrotation Xrotation Yrotation
                JOINT BN_Toe_R_21
                {
                  OFFSET 3.94896 0 0
                  CHANNELS 6 Xposition Yposition Zposition Zrotation Xrotation Yrotation
                  End Site
                  {
                    OFFSET 0 0 0
                  }
                }
              }
              JOINT BN_Toe_R_10
              {
                OFFSET 1.07522 1.64225 0.0223596
                CHANNELS 6 Xposition Yposition Zposition Zrotation Xrotation Yrotation
                JOINT BN_Toe_R_11
                {
                  OFFSET 4.09655 0 0
                  CHANNELS 6 Xposition Yposition Zposition Zrotation Xrotation Yrotation
                  End Site
                  {
                    OFFSET 0 0 0
                  }
                }
              }
              JOINT Bip01_R_Toe0
              {
                OFFSET 2.04238 1.88275 0
                CHANNELS 6 Xposition Yposition Zposition Zrotation Xrotation Yrotation
                End Site
                {
                  OFFSET 0 0 0
                }
              }
            }
          }
        }
      }
      JOINT Bip01_L_Thigh
      {
        OFFSET -2.85154 -1.24849 6.20577
        CHANNELS 6 Xposition Yposition Zposition Zrotation Xrotation Yrotation
        JOINT Bip01_L_Calf
        {
          OFFSET 6.73247 0 0
          CHANNELS 6 Xposition Yposition Zposition Zrotation Xrotation Yrotation
          JOINT Bip01_L_HorseLink
          {
            OFFSET 8.08524 0 0
            CHANNELS 6 Xposition Yposition Zposition Zrotation Xrotation Yrotation
            JOINT Bip01_L_Foot
            {
              OFFSET 8.97521 0 0
              CHANNELS 6 Xposition Yposition Zposition Zrotation Xrotation Yrotation
              JOINT BN_Toe_L_00
              {
                OFFSET 1.65461 0.933701 -1.02419
                CHANNELS 6 Xposition Yposition Zposition Zrotation Xrotation Yrotation
                JOINT BN_Toe_L_01
                {
                  OFFSET 3.51778 0 0
                  CHANNELS 6 Xposition Yposition Zposition Zrotation Xrotation Yrotation
                  End Site
                  {
                    OFFSET 0 0 0
                  }
                }
              }
              JOINT BN_Toe_L_10
              {
                OFFSET 1.07523 1.6422 -0.0221281
                CHANNELS 6 Xposition Yposition Zposition Zrotation Xrotation Yrotation
                JOINT BN_Toe_L_11
                {
                  OFFSET 4.09657 0 0
                  CHANNELS 6 Xposition Yposition Zposition Zrotation Xrotation Yrotation
                  End Site
                  {
                    OFFSET 0 0 0
                  }
                }
              }
              JOINT BN_Toe_L_30
              {
                OFFSET 1.58761 -0.234954 0.295135
                CHANNELS 6 Xposition Yposition Zposition Zrotation Xrotation Yrotation
                JOINT BN_Toe_L_31
                {
                  OFFSET 3.03847 0 0
                  CHANNELS 6 Xposition Yposition Zposition Zrotation Xrotation Yrotation
                  End Site
                  {
                    OFFSET 0 0 0
                  }
                }
              }
              JOINT BN_Toe_L_20
              {
                OFFSET 1.4731 1.01055 1.1673
                CHANNELS 6 Xposition Yposition Zposition Zrotation Xrotation Yrotation
                JOINT BN_Toe_L_21
                {
                  OFFSET 3.94897 0 0
                  CHANNELS 6 Xposition Yposition Zposition Zrotation Xrotation Yrotation
                  End Site
                  {
                    OFFSET 0 0 0
                  }
                }
              }
              JOINT Bip01_L_Toe0
              {
                OFFSET 2.04238 1.88276 0
                CHANNELS 6 Xposition Yposition Zposition Zrotation Xrotation Yrotation
                End Site
                {
                  OFFSET 0 0 0
                }
              }
            }
          }
        }
      }
      JOINT Bip01_Spine1
      {
        OFFSET 8.6167 -0.00679016 0
        CHANNELS 6 Xposition Yposition Zposition Zrotation Xrotation Yrotation
        JOINT BN_Wing_R_01
        {
          OFFSET 0.267445 -6.12421 -7.49305
          CHANNELS 6 Xposition Yposition Zposition Zrotation Xrotation Yrotation
          JOINT BN_Wing_R_02
          {
            OFFSET 14.7158 0 0
            CHANNELS 6 Xposition Yposition Zposition Zrotation Xrotation Yrotation
            JOINT BN_Wing_R_03
            {
              OFFSET 19.0858 0 0
              CHANNELS 6 Xposition Yposition Zposition Zrotation Xrotation Yrotation
              JOINT BN_Wing_R_05
              {
                OFFSET 2.68908 -0.270637 0.785261
                CHANNELS 6 Xposition Yposition Zposition Zrotation Xrotation Yrotation
                JOINT BN_Wing_R_06
                {
                  OFFSET 21.1083 0 0
                  CHANNELS 6 Xposition Yposition Zposition Zrotation Xrotation Yrotation
                  End Site
                  {
                    OFFSET 0 0 0
                  }
                }
              }
              JOINT BN_Wing_R_04
              {
                OFFSET 27.642 0 0
                CHANNELS 6 Xposition Yposition Zposition Zrotation Xrotation Yrotation
                End Site
                {
                  OFFSET 0 0 0
                }
              }
            }
          }
        }
        JOINT BN_Wing_L_01
        {
          OFFSET 0.267452 -6.12421 7.49305
          CHANNELS 6 Xposition Yposition Zposition Zrotation Xrotation Yrotation
          JOINT BN_Wing_L_02
          {
            OFFSET 14.7158 0 0
            CHANNELS 6 Xposition Yposition Zposition Zrotation Xrotation Yrotation
            JOINT BN_Wing_L_03
            {
              OFFSET 19.0858 0 0
              CHANNELS 6 Xposition Yposition Zposition Zrotation Xrotation Yrotation
              JOINT BN_Wing_L_05
              {
                OFFSET 2.68908 -0.270635 -0.785254
                CHANNELS 6 Xposition Yposition Zposition Zrotation Xrotation Yrotation
                JOINT BN_Wing_L_06
                {
                  OFFSET 21.1083 0 0
                  CHANNELS 6 Xposition Yposition Zposition Zrotation Xrotation Yrotation
                  End Site
                  {
                    OFFSET 0 0 0
                  }
                }
              }
              JOINT BN_Wing_L_04
              {
                OFFSET 27.642 0 1.14441e-005
                CHANNELS 6 Xposition Yposition Zposition Zrotation Xrotation Yrotation
                End Site
                {
                  OFFSET 0 0 0
                }
              }
            }
          }
        }
        JOINT Bip01_Neck
        {
          OFFSET 7.59958 -1.43237 0
          CHANNELS 6 Xposition Yposition Zposition Zrotation Xrotation Yrotation
          JOINT Bip01_Neck1
          {
            OFFSET 3.64749 -0.00262451 0
            CHANNELS 6 Xposition Yposition Zposition Zrotation Xrotation Yrotation
            JOINT Bip01_Neck2
            {
              OFFSET 3.32331 -0.00284576 0
              CHANNELS 6 Xposition Yposition Zposition Zrotation Xrotation Yrotation
              JOINT Bip01_Head
              {
                OFFSET 4.63256 -0.573471 0
                CHANNELS 6 Xposition Yposition Zposition Zrotation Xrotation Yrotation
                JOINT BN_Jaw
                {
                  OFFSET 1.05386 2.23561 0
                  CHANNELS 6 Xposition Yposition Zposition Zrotation Xrotation Yrotation
                  End Site
                  {
                    OFFSET 0 0 0
                  }
                }
              }
            }
          }
        }
      }
    }
  }
}
MOTION
Frames:	4
Frame Time:	0.0333333
-2.43362 24.9654 0 90 -85.8397 -180 -1.90735e-006 -2.77556e-017 4.44089e-016 -89.9989 9.99945 -89.999 -5.75804 -0.180656 4.47035e-008 -44.5858 -0.00897217 -179.978 10.2263 -0.119101 3.69374 19.4028 81.2741 -28.9945 15.0421 0.00709432 0.000825882 4.58962 -5.12649 -27.4812 10.2296 -0.120474 -3.68431 -138.189 77.8233 128.95 15.0421 0.00710452 -0.000667572 -4.5355 5.11533 -26.7371 3.04348 0.651205 -1.49012e-008 -21.965 0.000229006 2.44048 1.77636e-015 5.72205e-006 -6.20578 -115.429 -11.4463 -179.308 6.73248 -5.72205e-006 -1.19209e-007 -55.0745 4.15912e-006 8.8608e-006 8.08523 8.88178e-016 1.78814e-007 35.7113 4.08158e-007 -2.75223e-007 8.9752 0 -5.96047e-008 -14.6212 7.58307 -7.19136 1.58766 -0.234975 -0.295145 93.2477 -2.26341 173.997 3.03848 -1.19209e-007 -4.44089e-016 -26.0396 -3.36391e-006 -2.4952e-007 1.65464 0.933669 1.02414 80.737 18.5124 -48.8383 3.51775 1.19209e-007 0 28.5588 -6.40491e-006 7.16403e-006 1.47313 1.01061 -1.16707 72.6026 -3.48052 29.4796 3.94896 8.88179e-016 -9.53674e-007 30.0191 6.50165e-006 -2.90139e-006 1.07524 1.64226 0.0223624 64.0007 -6.27907 -0.078519 4.09656 0 4.2608e-007 34.7096 1.00864e-005 -7.21646e-006 2.04238 1.88276 -1.19209e-007 89.9962 8.95343e-006 -1.17225e-006 1.77636e-015 3.8147e-006 6.20578 -114.441 5.12925 176.908 6.73248 -1.90735e-006 0 -56.8764 2.24019e-007 4.79927e-008 8.08523 4.76837e-007 0 38.4594 7.83204e-006 -5.9724e-006 8.97519 1.77636e-015 8.88179e-016 -14.6784 -14.0485 5.61462 1.65463 0.933701 -1.02419 79.792 -19.5298 48.5309 3.51776 4.44089e-016 -3.55271e-015 28.9379 1.18962e-005 -5.05761e-006 1.07524 1.6422 -0.0221231 64.4999 6.27999 0.0258898 4.09656 4.76837e-007 2.38419e-007 33.5171 1.21636e-005 2.52007e-006 1.58765 -0.234954 0.295133 103.341 3.29072 -174.477 3.03848 2.38418e-007 1.78814e-007 -0.54906 1.04159e-005 9.81643e-006 1.47313 1.01055 1.1673 70.6482 4.58054 -29.3414 3.94897 0 4.76837e-007 29.3787 1.57747e-007 1.55921e-008 2.04238 1.88276 -2.38419e-007 89.9962 -8.40486e-007 -3.82625e-007 8.61403 -0.00580978 0 -32.0116 1.76984e-005 -9.3331e-006 5.09825 -3.95176 -6.1848 54.5368 -50.9014 -163.617 14.7158 -1.90735e-006 1.90735e-006 -176.231 38.0091 -8.1411 19.0858 0.0018425 -0.00193024 -158.517 -5.20599 -12.2639 2.68902 -0.270441 0.785583 -8.73627 2.89953 5.90407 21.1082 0.00190544 0.00234699 -4.33527 -0.891518 4.85693 27.642 0.00221062 0.00336075 -24.017 -0.0582924 3.31677 5.09824 -3.95176 6.1848 54.5369 50.9014 163.617 14.7158 0 0 -176.071 -37.9953 8.1959 19.0859 0.00421143 0.00268459 -158.517 5.20599 12.2639 2.68905 -0.270012 -0.785648 -8.73627 -2.89953 -5.90407 21.1083 0.00472832 -0.00273323 -4.32813 0.894714 -4.85684 27.642 0.00608063 -0.00378799 -24.0096 0.0641908 -3.31189 7.59889 -1.4324 -5.96047e-008 -6.69785 -2.4675 0.37768 3.64807 -0.0026331 -5.96047e-008 4.91586 -0.00319362 -2.19473 3.32349 -0.00287008 0 -1.21208 -1.07989 5.11415 4.63255 -0.57347 4.44089e-016 -6.93817 -3.34881 0.617129 1.05389 2.23561 0 -99.6033 -0.0361939 -179.969 
-2.43868 24.0772 -1.43126e-008 90.0001 -85.8296 -179.839 -1.90735e-006 0 0 -89.9988 9.98358 -89.999 -5.75804 -0.180654 4.47031e-008 -44.2256 -0.0167999 -179.959 10.2263 -0.119101 3.69374 19.3846 81.2906 -29.6246 15.0421 0.00709432 0.000825882 4.60996 -5.13293 -27.3655 10.2296 -0.120474 -3.68431 -138.197 77.8408 128.315 15.0421 0.00710452 -0.000667572 -4.51522 5.11195 -26.6197 3.04393 0.648738 -1.49079e-008 -22.6545 -0.0270049 2.44876 -2.06263e-010 5.72196e-006 -6.20578 -121.741 -11.3721 179.834 6.73248 -5.72205e-006 -1.19209e-007 -67.5425 2.80616e-006 9.64402e-006 8.08523 0 1.78814e-007 44.0681 7.15948e-006 6.9483e-006 8.9752 1.77636e-015 -5.96047e-008 -16.4686 7.86655 -7.48067 1.58766 -0.234975 -0.295145 93.2477 -2.26341 173.997 3.03848 -1.19209e-007 -3.10862e-015 -26.0396 -2.83353e-006 -7.55165e-007 1.65464 0.933669 1.02414 80.737 18.5124 -48.8383 3.51775 1.19209e-007 0 28.557 -3.79229e-006 1.64218e-005 1.47313 1.01061 -1.16707 72.6026 -3.48053 29.4796 3.94896 -4.44089e-015 -9.53674e-007 30.0191 0.000120619 0.000193933 1.07524 1.64226 0.0223623 64.0007 -6.27907 -0.0785191 4.09656 -4.44089e-015 4.2608e-007 34.7087 9.76665e-006 -7.09236e-006 2.04238 1.88276 -1.19807e-007 89.9628 0.072626 -0.00601113 2.06262e-010 3.81478e-006 6.20578 -120.107 5.42684 177.147 6.73248 -1.90735e-006 -8.88178e-016 -68.8292 2.62584e-007 7.9157e-008 8.08523 4.76837e-007 1.77636e-015 47.0679 6.80162e-006 -7.0542e-006 8.97519 1.77636e-015 -8.88179e-016 -16.7293 -14.2208 5.87927 1.65463 0.933701 -1.02419 79.792 -19.5298 48.5309 3.51776 1.46549e-014 7.10543e-015 28.94 0.000425778 0.000743487 1.07524 1.6422 -0.0221231 64.4999 6.27998 0.0258916 4.09656 4.76837e-007 2.38419e-007 33.5169 -0.000229198 -0.000361946 1.58765 -0.234954 0.295133 103.34 3.29263 -174.474 3.03848 2.38418e-007 1.78814e-007 -0.54928 2.95345e-005 -0.00198451 1.47313 1.01055 1.1673 70.6482 4.58053 -29.3414 3.94897 -8.88178e-015 4.76837e-007 29.3787 -0.000102163 -0.000181702 2.04238 1.88276 -2.384e-007 89.9509 -0.110055 -0.141026 8.61403 -0.00580978 4.14113e-014 -35.1717 1.81908e-005 -8.34415e-006 4.88342 -4.04696 -6.24253 43.4301 -65.4982 178.275 14.7158 -1.90735e-006 1.90735e-006 178.628 36.5763 -7.85598 19.0858 0.00160399 -0.00167113 -154.202 -5.11003 -10.6625 2.68902 -0.270441 0.785583 -9.94718 2.88786 5.88822 21.1082 0.00190544 0.00234699 -4.28226 -0.978768 6.2736 27.642 0.00221062 0.00336075 -23.0783 -0.065367 4.97353 4.88342 -4.04696 6.24245 43.4301 65.4982 -178.275 14.7158 5.9508e-014 3.55271e-015 178.628 -36.5763 7.856 19.0859 0.00421143 0.00268459 -154.202 5.11003 10.6625 2.68905 -0.270012 -0.785648 -9.94524 -2.89011 -5.82004 21.1083 0.00472832 -0.00273323 -4.28226 0.978764 -6.27359 27.642 0.00608063 -0.00378799 -23.0783 0.0653661 -4.97353 7.59889 -1.4324 -5.94745e-008 -6.76621 -2.47125 0.376 3.64807 -0.0026331 -5.96047e-008 4.8943 -0.00267243 -2.19829 3.32349 -0.00287008 5.11702e-013 -1.26568 -1.08586 5.11717 4.63255 -0.57347 -1.89106e-010 -3.20904 -3.26001 0.0943134 1.05389 2.23561 5.65948e-009 -99.5901 -0.0321503 -179.973 
-2.45195 22.8513 -3.41427e-008 90.0001 -85.805 -179.619 -1.90735e-006 -2.77556e-017 0 -89.9989 9.9379 -89.999 -5.75804 -0.180654 4.47025e-008 -43.309 -0.0158997 -179.96 10.2263 -0.119101 3.69374 19.3683 81.3132 -31.2389 15.0421 0.00709432 0.000825882 4.60327 -5.13028 -27.0658 10.2296 -0.120474 -3.68431 -138.194 77.8777 126.684 15.0421 0.00710452 -0.000667572 -4.52544 5.11364 -26.3198 3.04437 0.646311 -1.49089e-008 -23.5693 -0.0663387 2.4585 -4.47651e-010 5.72186e-006 -6.20578 -129.566 -11.3822 178.859 6.73248 -5.72205e-006 -1.19209e-007 -82.1805 6.94473e-007 1.03649e-005 8.08523 4.44089e-015 1.78814e-007 53.1307 7.80113e-006 6.06386e-006 8.9752 1.42109e-014 -5.96047e-008 -18.218 8.181 -7.96342 1.58766 -0.234975 -0.295145 93.2477 -2.26343 173.997 3.03848 -1.19209e-007 4.44089e-016 -26.0396 -2.35381e-006 -7.98989e-007 1.65464 0.933669 1.02414 80.737 18.5124 -48.8383 3.51775 1.19209e-007 -1.77636e-015 28.5552 -1.05516e-005 9.55772e-006 1.47313 1.01061 -1.16707 72.6026 -3.48053 29.4796 3.94896 -1.77636e-015 -9.53674e-007 30.0191 0.000234204 0.000389619 1.07524 1.64226 0.0223623 64.0007 -6.27907 -0.0785191 4.09656 -3.55271e-015 4.2608e-007 34.7078 9.39528e-006 -6.90116e-006 2.04238 1.88276 -1.20916e-007 89.9301 0.143846 -0.0118652 4.47642e-010 3.81488e-006 6.20578 -127.201 5.9069 177.473 6.73248 -1.90735e-006 -1.77636e-015 -83.023 3.05834e-007 1.12262e-007 8.08523 4.76837e-007 1.77636e-015 56.5466 5.49313e-006 -8.04196e-006 8.97519 8.88178e-015 -8.88179e-016 -18.6935 -14.4079 6.34671 1.65463 0.933701 -1.02419 79.792 -19.5298 48.5309 3.51776 4.88498e-015 8.88178e-015 28.942 0.000830925 0.001476 1.07524 1.6422 -0.0221231 64.4999 6.27998 0.0258956 4.09656 4.76837e-007 2.38419e-007 33.5166 -0.000455467 -0.000703641 1.58765 -0.234954 0.295133 103.34 3.29447 -174.471 3.03848 2.38418e-007 1.78814e-007 -0.549494 4.81434e-005 -0.0039242 1.47313 1.01055 1.1673 70.6482 4.58053 -29.3414 3.94897 -7.9936e-015 4.76837e-007 29.3787 -0.000209407 -0.000372146 2.04238 1.88276 -2.38403e-007 89.9063 -0.217854 -0.279403 8.61403 -0.00580978 4.38538e-014 -38.893 1.86972e-005 -7.14702e-006 4.34088 -4.29075 -6.38931 4.7159 -75.3368 134.01 14.7158 -1.90735e-006 1.90735e-006 166.062 32.8968 -7.40586 19.0858 0.0013726 -0.00141208 -143.04 -4.84521 -6.59024 2.68902 -0.270441 0.785583 -13.0989 2.86104 5.84138 21.1083 0.00190544 0.00234699 -4.10312 -1.1969 9.8558 27.642 0.00221062 0.00336075 -20.6769 -0.0628224 9.18065 4.34088 -4.29075 6.3892 4.71588 75.3368 -134.01 14.7158 8.79297e-014 -3.55271e-015 166.062 -32.8968 7.40587 19.0859 0.00421143 0.00268459 -143.04 4.8452 6.59025 2.68905 -0.270012 -0.785648 -13.0886 -2.86208 -5.61912 21.1083 0.00472832 -0.00273323 -4.10312 1.1969 -9.85579 27.642 0.00608063 -0.00378799 -20.6769 0.0628279 -9.18066 7.59889 -1.4324 -5.93961e-008 -6.94326 -2.47528 0.371971 3.64807 -0.0026331 -5.9605e-008 4.83541 -0.000711336 -2.20183 3.32349 -0.00287008 1.05349e-012 -1.40387 -1.09559 5.12275 4.63255 -0.57347 -4.75612e-010 1.05727 -3.21536 -0.47414 1.05389 2.23561 1.13615e-008 -99.5772 -0.028183 -179.976 
-2.47168 21.3419 -5.84926e-008 90 -85.7703 -179.35 -1.90735e-006 0 -4.44089e-016 -89.9989 9.87646 -89.9989 -5.75804 -0.180654 4.47016e-008 -42.0006 -0.0148163 -179.962 10.2263 -0.119101 3.69374 19.3834 81.3377 -33.5977 15.0421 0.00709432 0.000825882 4.60396 -5.13023 -26.637 10.2296 -0.120474 -3.68431 -138.193 77.9103 124.338 15.0421 0.00710452 -0.000667572 -4.52538 5.11744 -25.8916 3.04481 0.643862 -1.49224e-008 -24.5986 -0.105819 2.47191 -7.57206e-010 5.72182e-006 -6.20578 -138.164 -11.3643 177.852 6.73247 -5.72205e-006 -1.19209e-007 -97.7255 -1.49691e-006 1.03709e-005 8.08523 6.66134e-016 1.78814e-007 62.4156 -5.93636e-007 6.12321e-007 8.9752 3.55271e-015 -5.96047e-008 -19.9307 8.54315 -8.66004 1.58766 -0.234975 -0.295145 93.2477 -2.26343 173.997 3.03848 -1.19209e-007 -1.33227e-015 -26.0396 -1.92288e-006 -4.02429e-007 1.65464 0.933669 1.02414 80.737 18.5124 -48.8383 3.51775 1.19209e-007 0 28.5534 -9.02694e-006 1.8089e-005 1.47313 1.01061 -1.16707 72.6026 -3.48053 29.4796 3.94896 -7.10543e-015 -9.53674e-007 30.0191 0.000347561 0.000584813 1.07524 1.64226 0.0223623 64.0007 -6.27907 -0.0785191 4.09656 2.66454e-015 4.2608e-007 34.7069 1.47494e-005 1.57744e-006 2.04238 1.88276 -1.22778e-007 89.8971 0.215775 -0.0177353 7.57186e-010 3.81493e-006 6.20578 -134.92 6.53828 177.843 6.73248 -1.90735e-006 -1.77636e-015 -98.173 3.43927e-007 1.47638e-007 8.08523 4.76837e-007 1.77636e-015 66.4669 3.97482e-006 -8.82766e-006 8.97519 1.77636e-015 -8.88179e-016 -20.6256 -14.6294 7.03053 1.65463 0.933701 -1.02419 79.792 -19.5298 48.5309 3.51776 1.77636e-015 1.77636e-015 28.944 0.00124057 0.00221646 1.07524 1.6422 -0.0221231 64.4999 6.27998 0.0259015 4.09656 4.76837e-007 2.38419e-007 33.5164 -0.000681729 -0.00104534 1.58765 -0.234954 0.295133 103.339 3.29635 -174.468 3.03848 2.38418e-007 1.78814e-007 -0.549715 6.70294e-005 -0.00589121 1.47313 1.01055 1.1673 70.6482 4.58053 -29.3414 3.94897 4.44089e-015 4.76837e-007 29.3787 -0.000316658 -0.000562587 2.04238 1.88276 -2.38415e-007 89.8609 -0.326605 -0.419234 8.61403 -0.00580978 3.51941e-014 -42.9055 1.91513e-005 -5.82252e-006 3.56767 -4.63904 -6.5988 -52.8871 -70.6535 69.1895 14.7158 -1.90735e-006 1.90735e-006 147.691 27.6417 -6.82802 19.0858 0.00113638 -0.00116062 -126.68 -4.41762 -0.784623 2.68902 -0.270441 0.785583 -17.7415 2.81502 5.75924 21.1083 0.00190544 0.00234699 -3.78809 -1.48609 14.9711 27.642 0.00221062 0.00336075 -17.2529 -0.061966 15.1848 3.56767 -4.63904 6.59873 -52.8871 70.6534 -69.1894 14.7158 9.23705e-014 3.55271e-015 147.691 -27.6417 6.82804 19.0859 0.00421143 0.00268459 -126.68 4.41763 0.784628 2.68905 -0.270012 -0.785648 -17.7211 -2.81638 -5.34416 21.1083 0.00472831 -0.00273323 -3.78809 1.48608 -14.9711 27.642 0.00608062 -0.00378799 -17.2529 0.0619698 -15.1848 7.59889 -1.4324 -5.94036e-008 -7.2063 -2.48289 0.362357 3.64807 -0.0026331 -5.96055e-008 4.7445 0.00248347 -2.20545 3.32349 -0.00287008 1.52528e-012 -1.60951 -1.11539 5.12764 4.63255 -0.57347 -8.58023e-010 5.54212 -3.19318 -1.07484 1.05389 2.23561 1.63755e-008 -99.5641 -0.0241547 -179.98 
